<?xml version="1.0" encoding="iso-8859-1"?>
<!-- Generator: Adobe Illustrator 19.0.0, SVG Export Plug-In . SVG Version: 6.00 Build 0)  -->
<svg xmlns="http://www.w3.org/2000/svg" xmlns:xlink="http://www.w3.org/1999/xlink" version="1.1" id="Layer_1" x="0px" y="0px" viewBox="0 0 512 512" style="enable-background:new 0 0 512 512;" xml:space="preserve" width="512px" height="512px">
<g>
	<g>
		<path d="M437.02,74.98C388.667,26.628,324.38,0,256,0C187.619,0,123.332,26.628,74.98,74.98C26.628,123.333,0,187.62,0,256    s26.628,132.667,74.98,181.02C123.332,485.373,187.62,512,256,512s132.667-26.628,181.02-74.98    C485.372,388.668,512,324.381,512,256C512,187.62,485.372,123.333,437.02,74.98z M415.807,415.806    c-88.119,88.117-231.495,88.117-319.614,0.001c-88.116-88.118-88.116-231.495,0-319.613C140.252,52.135,198.126,30.105,256,30.105    c57.873,0,115.747,22.029,159.807,66.088C503.924,184.311,503.924,327.689,415.807,415.806z" fill="#ce3734"/>
	</g>
</g>
<g>
	<g>
		<path d="M415.958,135.072c-2.66-3.346-6.622-5.397-10.889-5.64c-4.277-0.244-8.437,1.347-11.458,4.369l-259.81,259.81    c-3.022,3.022-4.612,7.19-4.369,11.458c0.242,4.267,2.294,8.229,5.64,10.889c36.552,29.068,80.435,43.388,124.171,43.388    c51.402,0,102.603-19.778,141.463-58.64C472.633,328.78,479.189,214.583,415.958,135.072z M308.601,261.239    c0.03,0.219,0.067,0.435,0.095,0.655c1.571,12.135-0.021,23.974-4.222,33.434c-4.364-5.448-7.851-12.248-10.144-19.818    L308.601,261.239z M321.818,355.407c-9.459,4.2-21.298,5.795-33.434,4.222c-9.18-1.188-17.731-4.085-24.851-8.226    c11.668-0.548,22.745-3.178,32.518-7.655C306.007,345.831,314.977,349.928,321.818,355.407z M263.288,306.552    c7.57,2.293,14.37,5.78,19.818,10.144c-9.461,4.201-21.297,5.793-33.434,4.223c-0.22-0.028-0.437-0.065-0.656-0.095    L263.288,306.552z M379.491,379.493c-57.095,57.098-145.523,65.735-211.997,22.853l53.209-53.209    c0.324,0.917,0.73,1.816,1.242,2.677c11.88,19.988,35.277,34.032,62.587,37.567c4.406,0.57,8.779,0.85,13.092,0.85    c17.258,0,33.468-4.502,46.366-12.806l6.068,6.068c2.929,2.93,6.768,4.394,10.606,4.394c3.838,0,7.678-1.465,10.606-4.394    c5.858-5.857,5.858-15.355,0-21.213l-6.056-6.056c10.378-16.12,14.796-37.433,11.943-59.47    c-3.534-27.311-17.578-50.708-37.568-62.588c-0.861-0.512-1.759-0.917-2.676-1.241l65.431-65.431    C445.226,233.968,436.588,322.397,379.491,379.493z M331.533,308.305c4.481-9.776,7.107-20.865,7.656-32.539    c4.137,7.117,7.031,15.664,8.218,24.838c1.571,12.135-0.021,23.975-4.222,33.435C337.712,327.205,333.618,318.247,331.533,308.305    z" fill="#ce3734"/>
	</g>
</g>
<g>
	<g>
		<path d="M382.567,106.931c-0.242-4.267-2.294-8.229-5.64-10.889c-79.511-63.231-193.709-56.675-265.634,15.252    C39.367,183.22,32.811,297.417,96.042,376.928c2.66,3.346,6.622,5.397,10.889,5.64c0.285,0.017,0.569,0.024,0.853,0.024    c3.966,0,7.785-1.572,10.605-4.394l259.809-259.809C381.22,115.367,382.81,111.199,382.567,106.931z M190.919,263.241    c-11.637-1.715-22.2-6.166-29.999-12.412c9.461-4.2,21.303-5.79,33.435-4.223c3.76,0.487,7.415,1.261,10.909,2.289    L190.919,263.241z M156.324,168.546c9.98,2.45,20.246,8.379,28.833,16.966c8.588,8.588,14.517,18.852,16.967,28.833    c-9.98-2.45-20.246-8.379-28.833-16.966C164.703,188.791,158.774,178.527,156.324,168.546z M236.675,217.485    c-1.029-3.494-1.803-7.149-2.289-10.909c-1.571-12.135,0.021-23.974,4.222-33.434c6.246,7.798,10.697,18.36,12.412,29.998    L236.675,217.485z M275.573,178.586c-6.531-17.607-17.825-32.089-32.188-40.625c-5.937-3.527-13.515-2.548-18.356,2.376    c-7.123,7.241-12.589,16.32-16.192,26.525c-0.806-0.864-1.624-1.721-2.467-2.564c-19.412-19.411-44.736-29.334-67.755-26.552    c-6.855,0.83-12.259,6.233-13.089,13.089c-2.786,23.015,7.14,48.345,26.552,67.756c0.842,0.842,1.699,1.661,2.563,2.467    c-10.205,3.603-19.283,9.069-26.525,16.191c-4.923,4.843-5.904,12.421-2.376,18.357c8.536,14.363,23.018,25.657,40.625,32.187    l-56.711,56.711C66.772,278.03,75.41,189.601,132.507,132.505c33.037-33.037,76.551-49.848,120.244-49.848    c31.82,0.002,63.744,8.928,91.755,26.997L275.573,178.586z" fill="#ce3734"/>
	</g>
</g>
<g>
</g>
<g>
</g>
<g>
</g>
<g>
</g>
<g>
</g>
<g>
</g>
<g>
</g>
<g>
</g>
<g>
</g>
<g>
</g>
<g>
</g>
<g>
</g>
<g>
</g>
<g>
</g>
<g>
</g>
</svg>
